<svg xmlns="http://www.w3.org/2000/svg" width="900" height="620" viewBox="0 0 900 620" role="img" aria-label="Diagnóstico técnico">
<defs><linearGradient id="g" x1="0" y1="0" x2="1" y2="1"><stop stop-color="#eaf7ff"/><stop offset=".55" stop-color="#ffffff"/><stop offset="1" stop-color="#dff3ff"/></linearGradient><linearGradient id="b" x1="0" y1="0" x2="1" y2="1"><stop stop-color="#0057ff"/><stop offset="1" stop-color="#00b8ff"/></linearGradient><filter id="s" x="-20%" y="-20%" width="140%" height="140%"><feDropShadow dx="0" dy="18" stdDeviation="20" flood-color="#072a5e" flood-opacity=".18"/></filter></defs>
<rect width="900" height="620" rx="46" fill="url(#g)"/>
<circle cx="740" cy="110" r="92" fill="#dff6ff"/>
<circle cx="118" cy="502" r="120" fill="#eef9ff"/>
<g filter="url(#s)"><rect x="290" y="90" width="250" height="430" rx="34" fill="#f8fbff" stroke="#cbd9e6" stroke-width="5"/><line x1="415" y1="116" x2="415" y2="506" stroke="#d3dde8" stroke-width="5"/><rect x="324" y="135" width="58" height="242" rx="19" fill="#091f47" opacity=".82"/><rect x="452" y="135" width="58" height="242" rx="19" fill="#091f47" opacity=".82"/><rect x="327" y="408" width="170" height="36" rx="14" fill="#b7c4d2"/></g>
<path d="M225 515 C360 455, 500 555, 675 470" stroke="url(#b)" stroke-width="18" stroke-linecap="round" fill="none" opacity=".9"/>
<path d="M235 552 C392 496, 515 590, 727 514" stroke="#08255d" stroke-width="10" stroke-linecap="round" fill="none" opacity=".75"/>
<g transform="translate(596 248)"><circle r="84" fill="url(#b)"/><path d="M0 -54 v108 M-47 -27 L47 27 M47 -27 L-47 27 M-40 0 H40" stroke="white" stroke-width="15" stroke-linecap="round"/></g>
<text x="60" y="86" fill="#072a5e" font-family="Arial, Helvetica, sans-serif" font-size="34" font-weight="800">Diagnóstico técnico</text>
<text x="60" y="130" fill="#4f6680" font-family="Arial, Helvetica, sans-serif" font-size="22">Revisión eléctrica, sensores y sistema de frío</text>
</svg>